<svg width="682" height="289" viewBox="0 0 682 289" fill="none" xmlns="http://www.w3.org/2000/svg">
<path d="M191.059 31.9805V42H185.199V13.5625H196.293C198.428 13.5625 200.303 13.9531 201.918 14.7344C203.546 15.5156 204.796 16.6289 205.668 18.0742C206.54 19.5065 206.977 21.1406 206.977 22.9766C206.977 25.763 206.019 27.9635 204.105 29.5781C202.204 31.1797 199.568 31.9805 196.195 31.9805H191.059ZM191.059 27.2344H196.293C197.842 27.2344 199.021 26.8698 199.828 26.1406C200.648 25.4115 201.059 24.3698 201.059 23.0156C201.059 21.6224 200.648 20.4961 199.828 19.6367C199.008 18.7773 197.875 18.3346 196.43 18.3086H191.059V27.2344ZM222.523 26.1602C221.755 26.056 221.078 26.0039 220.492 26.0039C218.357 26.0039 216.957 26.7266 216.293 28.1719V42H210.648V20.8672H215.98L216.137 23.3867C217.269 21.4466 218.838 20.4766 220.844 20.4766C221.469 20.4766 222.055 20.5612 222.602 20.7305L222.523 26.1602ZM231.215 42H225.551V20.8672H231.215V42ZM225.219 15.3984C225.219 14.5521 225.499 13.8555 226.059 13.3086C226.631 12.7617 227.406 12.4883 228.383 12.4883C229.346 12.4883 230.115 12.7617 230.687 13.3086C231.26 13.8555 231.547 14.5521 231.547 15.3984C231.547 16.2578 231.254 16.9609 230.668 17.5078C230.095 18.0547 229.333 18.3281 228.383 18.3281C227.432 18.3281 226.664 18.0547 226.078 17.5078C225.505 16.9609 225.219 16.2578 225.219 15.3984ZM241.176 20.8672L241.352 23.2305C242.849 21.3945 244.874 20.4766 247.426 20.4766C250.147 20.4766 252.016 21.5508 253.031 23.6992C254.516 21.5508 256.631 20.4766 259.379 20.4766C261.671 20.4766 263.376 21.1471 264.496 22.4883C265.616 23.8164 266.176 25.8216 266.176 28.5039V42H260.512V28.5234C260.512 27.3255 260.277 26.4531 259.809 25.9062C259.34 25.3464 258.513 25.0664 257.328 25.0664C255.635 25.0664 254.463 25.8737 253.812 27.4883L253.832 42H248.187V28.543C248.187 27.319 247.947 26.4336 247.465 25.8867C246.983 25.3398 246.163 25.0664 245.004 25.0664C243.402 25.0664 242.243 25.7305 241.527 27.0586V42H235.883V20.8672H241.176ZM282.777 42C282.517 41.4922 282.328 40.8607 282.211 40.1055C280.844 41.6289 279.066 42.3906 276.879 42.3906C274.809 42.3906 273.09 41.7917 271.723 40.5938C270.368 39.3958 269.691 37.8854 269.691 36.0625C269.691 33.8229 270.518 32.1042 272.172 30.9062C273.838 29.7083 276.241 29.1029 279.379 29.0898H281.977V27.8789C281.977 26.9023 281.723 26.1211 281.215 25.5352C280.72 24.9492 279.932 24.6562 278.852 24.6562C277.901 24.6562 277.152 24.8841 276.605 25.3398C276.072 25.7956 275.805 26.4206 275.805 27.2148H270.16C270.16 25.9909 270.538 24.8581 271.293 23.8164C272.048 22.7747 273.116 21.9609 274.496 21.375C275.876 20.776 277.426 20.4766 279.144 20.4766C281.749 20.4766 283.812 21.1341 285.336 22.4492C286.872 23.7513 287.641 25.5872 287.641 27.957V37.1172C287.654 39.1224 287.934 40.6393 288.48 41.668V42H282.777ZM278.109 38.0742C278.943 38.0742 279.711 37.8919 280.414 37.5273C281.117 37.1497 281.638 36.6484 281.977 36.0234V32.3906H279.867C277.042 32.3906 275.538 33.3672 275.355 35.3203L275.336 35.6523C275.336 36.3555 275.583 36.9349 276.078 37.3906C276.573 37.8464 277.25 38.0742 278.109 38.0742ZM303.852 26.1602C303.083 26.056 302.406 26.0039 301.82 26.0039C299.685 26.0039 298.285 26.7266 297.621 28.1719V42H291.977V20.8672H297.309L297.465 23.3867C298.598 21.4466 300.167 20.4766 302.172 20.4766C302.797 20.4766 303.383 20.5612 303.93 20.7305L303.852 26.1602ZM314.828 34.0117L318.734 20.8672H324.789L316.293 45.2812L315.824 46.3945C314.561 49.1549 312.478 50.5352 309.574 50.5352C308.754 50.5352 307.921 50.4115 307.074 50.1641V45.8867L307.934 45.9062C309.001 45.9062 309.796 45.7435 310.316 45.418C310.85 45.0924 311.267 44.5521 311.566 43.7969L312.23 42.0586L304.828 20.8672H310.902L314.828 34.0117ZM357.582 18.3086H348.871V42H343.012V18.3086H334.418V13.5625H357.582V18.3086ZM366.859 34.0117L370.766 20.8672H376.82L368.324 45.2812L367.855 46.3945C366.592 49.1549 364.509 50.5352 361.605 50.5352C360.785 50.5352 359.952 50.4115 359.105 50.1641V45.8867L359.965 45.9062C361.032 45.9062 361.827 45.7435 362.348 45.418C362.881 45.0924 363.298 44.5521 363.598 43.7969L364.262 42.0586L356.859 20.8672H362.934L366.859 34.0117ZM398.07 31.6289C398.07 34.8841 397.328 37.4948 395.844 39.4609C394.372 41.4141 392.38 42.3906 389.867 42.3906C387.732 42.3906 386.006 41.6484 384.691 40.1641V50.125H379.047V20.8672H384.281L384.477 22.9375C385.844 21.2969 387.628 20.4766 389.828 20.4766C392.432 20.4766 394.457 21.4401 395.902 23.3672C397.348 25.2943 398.07 27.9505 398.07 31.3359V31.6289ZM392.426 31.2188C392.426 29.2526 392.074 27.7357 391.371 26.668C390.681 25.6003 389.672 25.0664 388.344 25.0664C386.573 25.0664 385.355 25.7435 384.691 27.0977V35.75C385.381 37.1432 386.612 37.8398 388.383 37.8398C391.078 37.8398 392.426 35.6328 392.426 31.2188ZM411.312 42.3906C408.213 42.3906 405.687 41.4401 403.734 39.5391C401.794 37.638 400.824 35.1055 400.824 31.9414V31.3945C400.824 29.2721 401.234 27.3776 402.055 25.7109C402.875 24.0312 404.034 22.7422 405.531 21.8438C407.042 20.9323 408.76 20.4766 410.687 20.4766C413.578 20.4766 415.85 21.388 417.504 23.2109C419.171 25.0339 420.004 27.6185 420.004 30.9648V33.2695H406.547C406.729 34.6497 407.276 35.7565 408.187 36.5898C409.112 37.4232 410.277 37.8398 411.684 37.8398C413.858 37.8398 415.557 37.0521 416.781 35.4766L419.555 38.582C418.708 39.7799 417.562 40.7174 416.117 41.3945C414.672 42.0586 413.07 42.3906 411.312 42.3906ZM410.668 25.0469C409.548 25.0469 408.637 25.4245 407.934 26.1797C407.243 26.9349 406.801 28.0156 406.605 29.4219H414.457V28.9727C414.431 27.7227 414.092 26.7591 413.441 26.082C412.79 25.3919 411.866 25.0469 410.668 25.0469ZM424.769 42V25.0078H421.625V20.8672H424.769V19.0703C424.769 16.7005 425.447 14.8646 426.801 13.5625C428.168 12.2474 430.075 11.5898 432.523 11.5898C433.305 11.5898 434.262 11.7201 435.394 11.9805L435.336 16.3555C434.867 16.2383 434.294 16.1797 433.617 16.1797C431.495 16.1797 430.434 17.1758 430.434 19.168V20.8672H434.633V25.0078H430.434V42H424.769ZM449.809 42C449.548 41.4922 449.359 40.8607 449.242 40.1055C447.875 41.6289 446.098 42.3906 443.91 42.3906C441.84 42.3906 440.121 41.7917 438.754 40.5938C437.4 39.3958 436.723 37.8854 436.723 36.0625C436.723 33.8229 437.549 32.1042 439.203 30.9062C440.87 29.7083 443.272 29.1029 446.41 29.0898H449.008V27.8789C449.008 26.9023 448.754 26.1211 448.246 25.5352C447.751 24.9492 446.963 24.6562 445.883 24.6562C444.932 24.6562 444.184 24.8841 443.637 25.3398C443.103 25.7956 442.836 26.4206 442.836 27.2148H437.191C437.191 25.9909 437.569 24.8581 438.324 23.8164C439.079 22.7747 440.147 21.9609 441.527 21.375C442.907 20.776 444.457 20.4766 446.176 20.4766C448.78 20.4766 450.844 21.1341 452.367 22.4492C453.904 23.7513 454.672 25.5872 454.672 27.957V37.1172C454.685 39.1224 454.965 40.6393 455.512 41.668V42H449.809ZM445.141 38.0742C445.974 38.0742 446.742 37.8919 447.445 37.5273C448.148 37.1497 448.669 36.6484 449.008 36.0234V32.3906H446.898C444.073 32.3906 442.569 33.3672 442.387 35.3203L442.367 35.6523C442.367 36.3555 442.615 36.9349 443.109 37.3906C443.604 37.8464 444.281 38.0742 445.141 38.0742ZM467.797 37.8398C468.838 37.8398 469.685 37.5534 470.336 36.9805C470.987 36.4076 471.325 35.6458 471.352 34.6953H476.644C476.631 36.1276 476.241 37.4427 475.473 38.6406C474.704 39.8255 473.65 40.75 472.309 41.4141C470.98 42.0651 469.509 42.3906 467.894 42.3906C464.874 42.3906 462.491 41.4336 460.746 39.5195C459.001 37.5924 458.129 34.9362 458.129 31.5508V31.1797C458.129 27.9245 458.995 25.3268 460.727 23.3867C462.458 21.4466 464.835 20.4766 467.855 20.4766C470.499 20.4766 472.615 21.2318 474.203 22.7422C475.805 24.2396 476.618 26.2383 476.644 28.7383H471.352C471.325 27.6445 470.987 26.7591 470.336 26.082C469.685 25.3919 468.825 25.0469 467.758 25.0469C466.443 25.0469 465.447 25.5286 464.769 26.4922C464.105 27.4427 463.773 28.9922 463.773 31.1406V31.7266C463.773 33.901 464.105 35.4635 464.769 36.4141C465.434 37.3646 466.443 37.8398 467.797 37.8398ZM489.594 42.3906C486.495 42.3906 483.969 41.4401 482.016 39.5391C480.075 37.638 479.105 35.1055 479.105 31.9414V31.3945C479.105 29.2721 479.516 27.3776 480.336 25.7109C481.156 24.0312 482.315 22.7422 483.812 21.8438C485.323 20.9323 487.042 20.4766 488.969 20.4766C491.859 20.4766 494.131 21.388 495.785 23.2109C497.452 25.0339 498.285 27.6185 498.285 30.9648V33.2695H484.828C485.01 34.6497 485.557 35.7565 486.469 36.5898C487.393 37.4232 488.559 37.8398 489.965 37.8398C492.139 37.8398 493.838 37.0521 495.062 35.4766L497.836 38.582C496.99 39.7799 495.844 40.7174 494.398 41.3945C492.953 42.0586 491.352 42.3906 489.594 42.3906ZM488.949 25.0469C487.829 25.0469 486.918 25.4245 486.215 26.1797C485.525 26.9349 485.082 28.0156 484.887 29.4219H492.738V28.9727C492.712 27.7227 492.374 26.7591 491.723 26.082C491.072 25.3919 490.147 25.0469 488.949 25.0469ZM191.846 84C195.246 84 197.726 84.8 199.286 86.4C200.846 87.96 201.626 90.38 201.626 93.66V95.16C201.626 97.32 201.266 99.1 200.546 100.5C199.866 101.9 198.806 102.94 197.366 103.62C200.646 104.9 202.286 107.9 202.286 112.62V116.04C202.286 119.28 201.426 121.76 199.706 123.48C198.026 125.16 195.546 126 192.266 126H181.886V84H191.846ZM188.486 101.1H191.066C192.386 101.1 193.366 100.76 194.006 100.08C194.686 99.4 195.026 98.26 195.026 96.66V94.32C195.026 92.8 194.746 91.7 194.186 91.02C193.666 90.34 192.826 90 191.666 90H188.486V101.1ZM188.486 120H192.266C193.426 120 194.286 119.7 194.846 119.1C195.406 118.46 195.686 117.38 195.686 115.86V112.2C195.686 110.28 195.346 108.96 194.666 108.24C194.026 107.48 192.946 107.1 191.426 107.1H188.486V120ZM221.921 101.7V107.7H212.861V120H224.261V126H206.261V84H224.261V90H212.861V101.7H221.921ZM238.311 84C241.711 84 244.191 84.8 245.751 86.4C247.311 87.96 248.091 90.38 248.091 93.66V95.16C248.091 97.32 247.731 99.1 247.011 100.5C246.331 101.9 245.271 102.94 243.831 103.62C247.111 104.9 248.751 107.9 248.751 112.62V116.04C248.751 119.28 247.891 121.76 246.171 123.48C244.491 125.16 242.011 126 238.731 126H228.351V84H238.311ZM234.951 101.1H237.531C238.851 101.1 239.831 100.76 240.471 100.08C241.151 99.4 241.491 98.26 241.491 96.66V94.32C241.491 92.8 241.211 91.7 240.651 91.02C240.131 90.34 239.291 90 238.131 90H234.951V101.1ZM234.951 120H238.731C239.891 120 240.751 119.7 241.311 119.1C241.871 118.46 242.151 117.38 242.151 115.86V112.2C242.151 110.28 241.811 108.96 241.131 108.24C240.491 107.48 239.411 107.1 237.891 107.1H234.951V120ZM267.426 126L266.286 118.38H258.186L257.046 126H250.986L257.706 84H267.366L274.086 126H267.426ZM265.386 112.68L262.206 91.44L259.026 112.68H265.386ZM276.32 94.08C276.32 90.68 277.14 88.08 278.78 86.28C280.42 84.44 282.84 83.52 286.04 83.52C289.24 83.52 291.66 84.44 293.3 86.28C294.94 88.08 295.76 90.68 295.76 94.08V95.4H289.52V93.66C289.52 92.22 289.24 91.18 288.68 90.54C288.12 89.86 287.3 89.52 286.22 89.52C285.14 89.52 284.32 89.86 283.76 90.54C283.2 91.18 282.92 92.22 282.92 93.66C282.92 95.42 283.38 96.96 284.3 98.28C285.26 99.6 286.68 101.1 288.56 102.78C290.12 104.22 291.38 105.5 292.34 106.62C293.3 107.7 294.12 109.02 294.8 110.58C295.48 112.14 295.82 113.92 295.82 115.92C295.82 119.32 294.98 121.94 293.3 123.78C291.62 125.58 289.18 126.48 285.98 126.48C282.78 126.48 280.34 125.58 278.66 123.78C276.98 121.94 276.14 119.32 276.14 115.92V113.34H282.38V116.34C282.38 119.06 283.52 120.42 285.8 120.42C288.08 120.42 289.22 119.06 289.22 116.34C289.22 114.58 288.74 113.04 287.78 111.72C286.86 110.4 285.46 108.9 283.58 107.22C282.02 105.78 280.76 104.52 279.8 103.44C278.84 102.32 278.02 100.98 277.34 99.42C276.66 97.86 276.32 96.08 276.32 94.08ZM314.798 126H308.858V84H317.138L323.918 109.14V84H329.798V126H323.018L314.798 95.58V126ZM350.183 101.7V107.7H341.123V120H352.523V126H334.523V84H352.523V90H341.123V101.7H350.183ZM362.913 116.4C362.913 119.12 364.053 120.48 366.333 120.48C368.613 120.48 369.753 119.12 369.753 116.4V84H375.993V115.98C375.993 119.38 375.153 122 373.473 123.84C371.793 125.64 369.353 126.54 366.153 126.54C362.953 126.54 360.513 125.64 358.833 123.84C357.153 122 356.313 119.38 356.313 115.98V84H362.913V116.4ZM396.179 101.7V107.7H387.119V120H398.519V126H380.519V84H398.519V90H387.119V101.7H396.179ZM421.885 84C425.285 84 427.765 84.8 429.325 86.4C430.885 87.96 431.665 90.38 431.665 93.66V95.16C431.665 97.32 431.305 99.1 430.585 100.5C429.905 101.9 428.845 102.94 427.405 103.62C430.685 104.9 432.325 107.9 432.325 112.62V116.04C432.325 119.28 431.465 121.76 429.745 123.48C428.065 125.16 425.585 126 422.305 126H411.925V84H421.885ZM418.525 101.1H421.105C422.425 101.1 423.405 100.76 424.045 100.08C424.725 99.4 425.065 98.26 425.065 96.66V94.32C425.065 92.8 424.785 91.7 424.225 91.02C423.705 90.34 422.865 90 421.705 90H418.525V101.1ZM418.525 120H422.305C423.465 120 424.325 119.7 424.885 119.1C425.445 118.46 425.725 117.38 425.725 115.86V112.2C425.725 110.28 425.385 108.96 424.705 108.24C424.065 107.48 422.985 107.1 421.465 107.1H418.525V120ZM435.76 94.08C435.76 90.72 436.62 88.12 438.34 86.28C440.06 84.44 442.54 83.52 445.78 83.52C449.02 83.52 451.5 84.44 453.22 86.28C454.94 88.12 455.8 90.72 455.8 94.08V115.92C455.8 119.28 454.94 121.88 453.22 123.72C451.5 125.56 449.02 126.48 445.78 126.48C442.54 126.48 440.06 125.56 438.34 123.72C436.62 121.88 435.76 119.28 435.76 115.92V94.08ZM442.36 116.34C442.36 119.1 443.5 120.48 445.78 120.48C448.06 120.48 449.2 119.1 449.2 116.34V93.66C449.2 90.9 448.06 89.52 445.78 89.52C443.5 89.52 442.36 90.9 442.36 93.66V116.34ZM466.689 84V120H477.549V126H460.089V84H466.689ZM490.861 84C494.141 84 496.601 84.88 498.241 86.64C499.881 88.4 500.701 90.98 500.701 94.38V115.62C500.701 119.02 499.881 121.6 498.241 123.36C496.601 125.12 494.141 126 490.861 126H480.421V84H490.861ZM487.021 120H490.741C491.821 120 492.641 119.68 493.201 119.04C493.801 118.4 494.101 117.36 494.101 115.92V94.08C494.101 92.64 493.801 91.6 493.201 90.96C492.641 90.32 491.821 90 490.741 90H487.021V120Z" fill="black"/>
<path d="M175.453 210.573C175.453 209.466 175.062 208.62 174.281 208.034C173.5 207.435 172.094 206.81 170.062 206.159C168.031 205.495 166.423 204.844 165.238 204.206C162.009 202.461 160.394 200.111 160.394 197.155C160.394 195.619 160.824 194.252 161.684 193.054C162.556 191.843 163.799 190.899 165.414 190.222C167.042 189.545 168.865 189.206 170.883 189.206C172.914 189.206 174.724 189.577 176.312 190.319C177.901 191.049 179.131 192.084 180.004 193.425C180.889 194.766 181.332 196.289 181.332 197.995H175.473C175.473 196.693 175.062 195.684 174.242 194.968C173.422 194.239 172.269 193.874 170.785 193.874C169.353 193.874 168.24 194.18 167.445 194.792C166.651 195.391 166.254 196.185 166.254 197.175C166.254 198.099 166.716 198.874 167.641 199.499C168.578 200.124 169.952 200.71 171.762 201.257C175.095 202.259 177.523 203.503 179.047 204.987C180.57 206.472 181.332 208.321 181.332 210.534C181.332 212.995 180.401 214.929 178.539 216.335C176.677 217.728 174.171 218.425 171.019 218.425C168.832 218.425 166.84 218.028 165.043 217.233C163.246 216.426 161.872 215.326 160.922 213.933C159.984 212.539 159.516 210.925 159.516 209.089H165.394C165.394 212.227 167.269 213.796 171.019 213.796C172.413 213.796 173.5 213.516 174.281 212.956C175.062 212.383 175.453 211.589 175.453 210.573ZM194.672 218.425C191.573 218.425 189.047 217.474 187.094 215.573C185.154 213.672 184.184 211.14 184.184 207.976V207.429C184.184 205.306 184.594 203.412 185.414 201.745C186.234 200.065 187.393 198.776 188.891 197.878C190.401 196.966 192.12 196.511 194.047 196.511C196.937 196.511 199.21 197.422 200.863 199.245C202.53 201.068 203.363 203.653 203.363 206.999V209.304H189.906C190.088 210.684 190.635 211.791 191.547 212.624C192.471 213.457 193.637 213.874 195.043 213.874C197.217 213.874 198.917 213.086 200.141 211.511L202.914 214.616C202.068 215.814 200.922 216.752 199.477 217.429C198.031 218.093 196.43 218.425 194.672 218.425ZM194.027 201.081C192.907 201.081 191.996 201.459 191.293 202.214C190.603 202.969 190.16 204.05 189.965 205.456H197.816V205.007C197.79 203.757 197.452 202.793 196.801 202.116C196.15 201.426 195.225 201.081 194.027 201.081ZM215.375 213.874C216.417 213.874 217.263 213.588 217.914 213.015C218.565 212.442 218.904 211.68 218.93 210.729H224.223C224.21 212.162 223.819 213.477 223.051 214.675C222.282 215.86 221.228 216.784 219.887 217.448C218.559 218.099 217.087 218.425 215.473 218.425C212.452 218.425 210.069 217.468 208.324 215.554C206.579 213.627 205.707 210.97 205.707 207.585V207.214C205.707 203.959 206.573 201.361 208.305 199.421C210.036 197.481 212.413 196.511 215.434 196.511C218.077 196.511 220.193 197.266 221.781 198.776C223.383 200.274 224.197 202.272 224.223 204.772H218.93C218.904 203.679 218.565 202.793 217.914 202.116C217.263 201.426 216.404 201.081 215.336 201.081C214.021 201.081 213.025 201.563 212.348 202.526C211.684 203.477 211.352 205.026 211.352 207.175V207.761C211.352 209.935 211.684 211.498 212.348 212.448C213.012 213.399 214.021 213.874 215.375 213.874ZM226.566 207.272C226.566 205.176 226.97 203.308 227.777 201.667C228.585 200.026 229.743 198.757 231.254 197.858C232.777 196.96 234.542 196.511 236.547 196.511C239.398 196.511 241.723 197.383 243.519 199.128C245.329 200.873 246.338 203.243 246.547 206.237L246.586 207.683C246.586 210.925 245.681 213.529 243.871 215.495C242.061 217.448 239.633 218.425 236.586 218.425C233.539 218.425 231.104 217.448 229.281 215.495C227.471 213.542 226.566 210.886 226.566 207.526V207.272ZM232.211 207.683C232.211 209.688 232.588 211.224 233.344 212.292C234.099 213.347 235.18 213.874 236.586 213.874C237.953 213.874 239.021 213.353 239.789 212.312C240.557 211.257 240.941 209.577 240.941 207.272C240.941 205.306 240.557 203.783 239.789 202.702C239.021 201.621 237.94 201.081 236.547 201.081C235.167 201.081 234.099 201.621 233.344 202.702C232.588 203.77 232.211 205.43 232.211 207.683ZM255.258 196.901L255.434 199.343C256.944 197.455 258.969 196.511 261.508 196.511C263.747 196.511 265.414 197.168 266.508 198.483C267.602 199.799 268.161 201.765 268.187 204.382V218.034H262.543V204.519C262.543 203.321 262.282 202.455 261.762 201.921C261.241 201.374 260.375 201.101 259.164 201.101C257.575 201.101 256.384 201.778 255.59 203.132V218.034H249.945V196.901H255.258ZM271.605 207.312C271.605 204.017 272.341 201.394 273.812 199.44C275.297 197.487 277.322 196.511 279.887 196.511C281.944 196.511 283.643 197.279 284.984 198.815V188.034H290.648V218.034H285.551L285.277 215.788C283.871 217.546 282.061 218.425 279.848 218.425C277.361 218.425 275.362 217.448 273.852 215.495C272.354 213.529 271.605 210.801 271.605 207.312ZM277.25 207.722C277.25 209.701 277.595 211.218 278.285 212.272C278.975 213.327 279.978 213.854 281.293 213.854C283.038 213.854 284.268 213.119 284.984 211.647V203.308C284.281 201.836 283.064 201.101 281.332 201.101C278.611 201.101 277.25 203.308 277.25 207.722ZM307.269 218.034C307.009 217.526 306.82 216.895 306.703 216.14C305.336 217.663 303.559 218.425 301.371 218.425C299.301 218.425 297.582 217.826 296.215 216.628C294.861 215.43 294.184 213.92 294.184 212.097C294.184 209.857 295.01 208.138 296.664 206.94C298.331 205.743 300.733 205.137 303.871 205.124H306.469V203.913C306.469 202.937 306.215 202.155 305.707 201.569C305.212 200.983 304.424 200.69 303.344 200.69C302.393 200.69 301.644 200.918 301.098 201.374C300.564 201.83 300.297 202.455 300.297 203.249H294.652C294.652 202.025 295.03 200.892 295.785 199.851C296.54 198.809 297.608 197.995 298.988 197.409C300.368 196.81 301.918 196.511 303.637 196.511C306.241 196.511 308.305 197.168 309.828 198.483C311.365 199.785 312.133 201.621 312.133 203.991V213.151C312.146 215.157 312.426 216.674 312.973 217.702V218.034H307.269ZM302.602 214.108C303.435 214.108 304.203 213.926 304.906 213.562C305.609 213.184 306.13 212.683 306.469 212.058V208.425H304.359C301.534 208.425 300.03 209.401 299.848 211.354L299.828 211.687C299.828 212.39 300.075 212.969 300.57 213.425C301.065 213.881 301.742 214.108 302.602 214.108ZM328.344 202.194C327.575 202.09 326.898 202.038 326.312 202.038C324.177 202.038 322.777 202.761 322.113 204.206V218.034H316.469V196.901H321.801L321.957 199.421C323.09 197.481 324.659 196.511 326.664 196.511C327.289 196.511 327.875 196.595 328.422 196.765L328.344 202.194ZM339.32 210.046L343.227 196.901H349.281L340.785 221.315L340.316 222.429C339.053 225.189 336.97 226.569 334.066 226.569C333.246 226.569 332.413 226.446 331.566 226.198V221.921L332.426 221.94C333.493 221.94 334.288 221.778 334.809 221.452C335.342 221.127 335.759 220.586 336.059 219.831L336.723 218.093L329.32 196.901H335.394L339.32 210.046ZM382.074 194.343H373.363V218.034H367.504V194.343H358.91V189.597H382.074V194.343ZM391.352 210.046L395.258 196.901H401.312L392.816 221.315L392.348 222.429C391.085 225.189 389.001 226.569 386.098 226.569C385.277 226.569 384.444 226.446 383.598 226.198V221.921L384.457 221.94C385.525 221.94 386.319 221.778 386.84 221.452C387.374 221.127 387.79 220.586 388.09 219.831L388.754 218.093L381.352 196.901H387.426L391.352 210.046ZM422.562 207.663C422.562 210.918 421.82 213.529 420.336 215.495C418.865 217.448 416.872 218.425 414.359 218.425C412.224 218.425 410.499 217.683 409.184 216.198V226.159H403.539V196.901H408.773L408.969 198.972C410.336 197.331 412.12 196.511 414.32 196.511C416.924 196.511 418.949 197.474 420.394 199.401C421.84 201.328 422.562 203.985 422.562 207.37V207.663ZM416.918 207.253C416.918 205.287 416.566 203.77 415.863 202.702C415.173 201.634 414.164 201.101 412.836 201.101C411.065 201.101 409.848 201.778 409.184 203.132V211.784C409.874 213.177 411.104 213.874 412.875 213.874C415.57 213.874 416.918 211.667 416.918 207.253ZM435.805 218.425C432.706 218.425 430.18 217.474 428.227 215.573C426.286 213.672 425.316 211.14 425.316 207.976V207.429C425.316 205.306 425.727 203.412 426.547 201.745C427.367 200.065 428.526 198.776 430.023 197.878C431.534 196.966 433.253 196.511 435.18 196.511C438.07 196.511 440.342 197.422 441.996 199.245C443.663 201.068 444.496 203.653 444.496 206.999V209.304H431.039C431.221 210.684 431.768 211.791 432.68 212.624C433.604 213.457 434.769 213.874 436.176 213.874C438.35 213.874 440.049 213.086 441.273 211.511L444.047 214.616C443.2 215.814 442.055 216.752 440.609 217.429C439.164 218.093 437.562 218.425 435.805 218.425ZM435.16 201.081C434.04 201.081 433.129 201.459 432.426 202.214C431.736 202.969 431.293 204.05 431.098 205.456H438.949V205.007C438.923 203.757 438.585 202.793 437.934 202.116C437.282 201.426 436.358 201.081 435.16 201.081ZM449.262 218.034V201.042H446.117V196.901H449.262V195.104C449.262 192.735 449.939 190.899 451.293 189.597C452.66 188.282 454.568 187.624 457.016 187.624C457.797 187.624 458.754 187.754 459.887 188.015L459.828 192.39C459.359 192.272 458.786 192.214 458.109 192.214C455.987 192.214 454.926 193.21 454.926 195.202V196.901H459.125V201.042H454.926V218.034H449.262ZM474.301 218.034C474.04 217.526 473.852 216.895 473.734 216.14C472.367 217.663 470.59 218.425 468.402 218.425C466.332 218.425 464.613 217.826 463.246 216.628C461.892 215.43 461.215 213.92 461.215 212.097C461.215 209.857 462.042 208.138 463.695 206.94C465.362 205.743 467.764 205.137 470.902 205.124H473.5V203.913C473.5 202.937 473.246 202.155 472.738 201.569C472.243 200.983 471.456 200.69 470.375 200.69C469.424 200.69 468.676 200.918 468.129 201.374C467.595 201.83 467.328 202.455 467.328 203.249H461.684C461.684 202.025 462.061 200.892 462.816 199.851C463.572 198.809 464.639 197.995 466.019 197.409C467.4 196.81 468.949 196.511 470.668 196.511C473.272 196.511 475.336 197.168 476.859 198.483C478.396 199.785 479.164 201.621 479.164 203.991V213.151C479.177 215.157 479.457 216.674 480.004 217.702V218.034H474.301ZM469.633 214.108C470.466 214.108 471.234 213.926 471.937 213.562C472.641 213.184 473.161 212.683 473.5 212.058V208.425H471.391C468.565 208.425 467.061 209.401 466.879 211.354L466.859 211.687C466.859 212.39 467.107 212.969 467.602 213.425C468.096 213.881 468.773 214.108 469.633 214.108ZM492.289 213.874C493.331 213.874 494.177 213.588 494.828 213.015C495.479 212.442 495.818 211.68 495.844 210.729H501.137C501.124 212.162 500.733 213.477 499.965 214.675C499.197 215.86 498.142 216.784 496.801 217.448C495.473 218.099 494.001 218.425 492.387 218.425C489.366 218.425 486.983 217.468 485.238 215.554C483.493 213.627 482.621 210.97 482.621 207.585V207.214C482.621 203.959 483.487 201.361 485.219 199.421C486.95 197.481 489.327 196.511 492.348 196.511C494.991 196.511 497.107 197.266 498.695 198.776C500.297 200.274 501.111 202.272 501.137 204.772H495.844C495.818 203.679 495.479 202.793 494.828 202.116C494.177 201.426 493.318 201.081 492.25 201.081C490.935 201.081 489.939 201.563 489.262 202.526C488.598 203.477 488.266 205.026 488.266 207.175V207.761C488.266 209.935 488.598 211.498 489.262 212.448C489.926 213.399 490.935 213.874 492.289 213.874ZM514.086 218.425C510.987 218.425 508.461 217.474 506.508 215.573C504.568 213.672 503.598 211.14 503.598 207.976V207.429C503.598 205.306 504.008 203.412 504.828 201.745C505.648 200.065 506.807 198.776 508.305 197.878C509.815 196.966 511.534 196.511 513.461 196.511C516.352 196.511 518.624 197.422 520.277 199.245C521.944 201.068 522.777 203.653 522.777 206.999V209.304H509.32C509.503 210.684 510.049 211.791 510.961 212.624C511.885 213.457 513.051 213.874 514.457 213.874C516.631 213.874 518.331 213.086 519.555 211.511L522.328 214.616C521.482 215.814 520.336 216.752 518.891 217.429C517.445 218.093 515.844 218.425 514.086 218.425ZM513.441 201.081C512.322 201.081 511.41 201.459 510.707 202.214C510.017 202.969 509.574 204.05 509.379 205.456H517.23V205.007C517.204 203.757 516.866 202.793 516.215 202.116C515.564 201.426 514.639 201.081 513.441 201.081ZM226.31 252.434H233.86C236.76 252.434 238.977 253.251 240.51 254.884C242.043 256.484 242.81 258.734 242.81 261.634V278.284C242.81 281.618 241.993 284.084 240.36 285.684C238.76 287.251 236.443 288.034 233.41 288.034H226.31V252.434ZM231.41 283.234H233.76C235.193 283.234 236.21 282.884 236.81 282.184C237.41 281.451 237.71 280.318 237.71 278.784V261.634C237.71 260.234 237.427 259.151 236.86 258.384C236.293 257.618 235.26 257.234 233.76 257.234H231.41V283.234ZM247.749 252.434H252.849V288.034H247.749V252.434ZM257.604 252.434H262.504L270.204 273.884H270.304V252.434H275.404V288.034H270.604L262.804 266.634H262.704V288.034H257.604V252.434ZM305.498 280.084C305.498 281.184 305.282 282.234 304.848 283.234C304.448 284.234 303.882 285.118 303.148 285.884C302.415 286.618 301.548 287.218 300.548 287.684C299.582 288.118 298.532 288.334 297.398 288.334C296.432 288.334 295.448 288.201 294.448 287.934C293.448 287.668 292.548 287.218 291.748 286.584C290.948 285.918 290.282 285.051 289.748 283.984C289.248 282.918 288.998 281.568 288.998 279.934V260.334C288.998 259.168 289.198 258.084 289.598 257.084C289.998 256.084 290.565 255.218 291.298 254.484C292.032 253.751 292.898 253.184 293.898 252.784C294.932 252.351 296.065 252.134 297.298 252.134C298.465 252.134 299.548 252.351 300.548 252.784C301.548 253.184 302.415 253.768 303.148 254.534C303.882 255.268 304.448 256.168 304.848 257.234C305.282 258.268 305.498 259.401 305.498 260.634V262.634H300.398V260.934C300.398 259.934 300.115 259.068 299.548 258.334C298.982 257.601 298.215 257.234 297.248 257.234C295.982 257.234 295.132 257.634 294.698 258.434C294.298 259.201 294.098 260.184 294.098 261.384V279.584C294.098 280.618 294.315 281.484 294.748 282.184C295.215 282.884 296.032 283.234 297.198 283.234C297.532 283.234 297.882 283.184 298.248 283.084C298.648 282.951 298.998 282.751 299.298 282.484C299.632 282.218 299.898 281.851 300.098 281.384C300.298 280.918 300.398 280.334 300.398 279.634V277.884H305.498V280.084ZM308.91 271.184C308.91 270.151 308.976 269.201 309.11 268.334C309.243 267.468 309.493 266.701 309.86 266.034C310.46 264.934 311.326 264.051 312.46 263.384C313.593 262.718 314.943 262.384 316.51 262.384C318.076 262.384 319.426 262.718 320.56 263.384C321.693 264.051 322.56 264.934 323.16 266.034C323.526 266.701 323.776 267.468 323.91 268.334C324.043 269.201 324.11 270.151 324.11 271.184V279.534C324.11 280.568 324.043 281.518 323.91 282.384C323.776 283.251 323.526 284.018 323.16 284.684C322.56 285.784 321.693 286.668 320.56 287.334C319.426 288.001 318.076 288.334 316.51 288.334C314.943 288.334 313.593 288.001 312.46 287.334C311.326 286.668 310.46 285.784 309.86 284.684C309.493 284.018 309.243 283.251 309.11 282.384C308.976 281.518 308.91 280.568 308.91 279.534V271.184ZM314.01 280.334C314.01 281.301 314.226 282.034 314.66 282.534C315.126 283.001 315.743 283.234 316.51 283.234C317.276 283.234 317.876 283.001 318.31 282.534C318.776 282.034 319.01 281.301 319.01 280.334V270.384C319.01 269.418 318.776 268.701 318.31 268.234C317.876 267.734 317.276 267.484 316.51 267.484C315.743 267.484 315.126 267.734 314.66 268.234C314.226 268.701 314.01 269.418 314.01 270.384V280.334ZM327.866 262.684H332.966V265.134H333.066C333.599 264.334 334.232 263.684 334.966 263.184C335.732 262.651 336.699 262.384 337.866 262.384C338.499 262.384 339.132 262.501 339.766 262.734C340.399 262.934 340.966 263.284 341.466 263.784C341.966 264.284 342.366 264.934 342.666 265.734C342.966 266.501 343.116 267.451 343.116 268.584V288.034H338.016V270.484C338.016 269.551 337.799 268.818 337.366 268.284C336.932 267.751 336.316 267.484 335.516 267.484C334.549 267.484 333.882 267.784 333.516 268.384C333.149 268.984 332.966 269.851 332.966 270.984V288.034H327.866V262.684ZM352.399 279.784C352.399 280.818 352.599 281.651 352.999 282.284C353.399 282.918 354.032 283.234 354.899 283.234C355.666 283.234 356.282 282.951 356.749 282.384C357.216 281.784 357.449 281.018 357.449 280.084V270.234C357.449 269.434 357.199 268.784 356.699 268.284C356.232 267.751 355.632 267.484 354.899 267.484C353.932 267.484 353.266 267.784 352.899 268.384C352.566 268.984 352.399 269.684 352.399 270.484V279.784ZM357.449 285.734C357.116 286.101 356.799 286.451 356.499 286.784C356.199 287.084 355.866 287.351 355.499 287.584C355.132 287.818 354.716 288.001 354.249 288.134C353.782 288.268 353.232 288.334 352.599 288.334C350.499 288.334 349.016 287.534 348.149 285.934C347.849 285.368 347.632 284.668 347.499 283.834C347.366 283.001 347.299 281.884 347.299 280.484V270.834C347.299 269.001 347.349 267.651 347.449 266.784C347.549 265.918 347.766 265.218 348.099 264.684C348.532 264.018 349.082 263.468 349.749 263.034C350.449 262.601 351.416 262.384 352.649 262.384C353.649 262.384 354.532 262.618 355.299 263.084C356.099 263.518 356.782 264.151 357.349 264.984H357.449V252.434H362.549V288.034H357.449V285.734ZM371.383 277.284V280.734C371.383 281.534 371.599 282.151 372.033 282.584C372.499 283.018 373.116 283.234 373.883 283.234C374.849 283.234 375.483 282.951 375.783 282.384C376.116 281.818 376.316 281.251 376.383 280.684H381.483C381.483 281.751 381.299 282.751 380.933 283.684C380.599 284.618 380.099 285.418 379.433 286.084C378.766 286.784 377.966 287.334 377.033 287.734C376.099 288.134 375.049 288.334 373.883 288.334C372.316 288.334 370.966 288.001 369.833 287.334C368.699 286.668 367.833 285.784 367.233 284.684C366.866 284.018 366.616 283.251 366.483 282.384C366.349 281.518 366.283 280.568 366.283 279.534V271.184C366.283 270.151 366.349 269.201 366.483 268.334C366.616 267.468 366.866 266.701 367.233 266.034C367.833 264.934 368.699 264.051 369.833 263.384C370.966 262.718 372.316 262.384 373.883 262.384C375.049 262.384 376.099 262.584 377.033 262.984C377.999 263.384 378.799 263.951 379.433 264.684C380.099 265.384 380.599 266.218 380.933 267.184C381.299 268.151 381.483 269.184 381.483 270.284V277.284H371.383ZM371.383 273.284H376.383V270.384C376.383 269.418 376.149 268.701 375.683 268.234C375.249 267.734 374.649 267.484 373.883 267.484C373.116 267.484 372.499 267.734 372.033 268.234C371.599 268.701 371.383 269.418 371.383 270.384V273.284ZM385.239 262.684H390.339V265.134H390.439C390.972 264.334 391.605 263.684 392.339 263.184C393.105 262.651 394.072 262.384 395.239 262.384C395.872 262.384 396.505 262.501 397.139 262.734C397.772 262.934 398.339 263.284 398.839 263.784C399.339 264.284 399.739 264.934 400.039 265.734C400.339 266.501 400.489 267.451 400.489 268.584V288.034H395.389V270.484C395.389 269.551 395.172 268.818 394.739 268.284C394.305 267.751 393.689 267.484 392.889 267.484C391.922 267.484 391.255 267.784 390.889 268.384C390.522 268.984 390.339 269.851 390.339 270.984V288.034H385.239V262.684ZM413.922 269.784C413.889 268.918 413.606 268.268 413.072 267.834C412.572 267.401 411.989 267.184 411.322 267.184C410.522 267.184 409.906 267.451 409.472 267.984C409.039 268.484 408.822 269.068 408.822 269.734C408.822 270.201 408.939 270.668 409.172 271.134C409.406 271.568 410.006 271.968 410.972 272.334L413.972 273.534C415.872 274.268 417.172 275.268 417.872 276.534C418.606 277.801 418.972 279.184 418.972 280.684C418.972 281.751 418.772 282.751 418.372 283.684C418.006 284.584 417.489 285.384 416.822 286.084C416.156 286.784 415.356 287.334 414.422 287.734C413.489 288.134 412.472 288.334 411.372 288.334C410.372 288.334 409.422 288.168 408.522 287.834C407.622 287.501 406.822 287.018 406.122 286.384C405.456 285.751 404.906 284.968 404.472 284.034C404.039 283.068 403.806 281.951 403.772 280.684H408.572C408.672 281.384 408.906 282.034 409.272 282.634C409.672 283.234 410.356 283.534 411.322 283.534C412.056 283.534 412.706 283.301 413.272 282.834C413.872 282.334 414.172 281.651 414.172 280.784C414.172 280.084 413.989 279.484 413.622 278.984C413.256 278.484 412.589 278.051 411.622 277.684L409.172 276.784C407.572 276.184 406.306 275.301 405.372 274.134C404.472 272.934 404.022 271.484 404.022 269.784C404.022 268.718 404.222 267.734 404.622 266.834C405.022 265.901 405.556 265.118 406.222 264.484C406.922 263.818 407.722 263.301 408.622 262.934C409.522 262.568 410.489 262.384 411.522 262.384C412.556 262.384 413.506 262.584 414.372 262.984C415.272 263.351 416.039 263.868 416.672 264.534C417.306 265.168 417.806 265.951 418.172 266.884C418.539 267.784 418.722 268.751 418.722 269.784H413.922ZM426.9 277.284V280.734C426.9 281.534 427.117 282.151 427.55 282.584C428.017 283.018 428.634 283.234 429.4 283.234C430.367 283.234 431 282.951 431.3 282.384C431.634 281.818 431.834 281.251 431.9 280.684H437C437 281.751 436.817 282.751 436.45 283.684C436.117 284.618 435.617 285.418 434.95 286.084C434.284 286.784 433.484 287.334 432.55 287.734C431.617 288.134 430.567 288.334 429.4 288.334C427.834 288.334 426.484 288.001 425.35 287.334C424.217 286.668 423.35 285.784 422.75 284.684C422.384 284.018 422.134 283.251 422 282.384C421.867 281.518 421.8 280.568 421.8 279.534V271.184C421.8 270.151 421.867 269.201 422 268.334C422.134 267.468 422.384 266.701 422.75 266.034C423.35 264.934 424.217 264.051 425.35 263.384C426.484 262.718 427.834 262.384 429.4 262.384C430.567 262.384 431.617 262.584 432.55 262.984C433.517 263.384 434.317 263.951 434.95 264.684C435.617 265.384 436.117 266.218 436.45 267.184C436.817 268.151 437 269.184 437 270.284V277.284H426.9ZM426.9 273.284H431.9V270.384C431.9 269.418 431.667 268.701 431.2 268.234C430.767 267.734 430.167 267.484 429.4 267.484C428.634 267.484 428.017 267.734 427.55 268.234C427.117 268.701 426.9 269.418 426.9 270.384V273.284ZM445.856 279.784C445.856 280.818 446.056 281.651 446.456 282.284C446.856 282.918 447.49 283.234 448.356 283.234C449.123 283.234 449.74 282.951 450.206 282.384C450.673 281.784 450.906 281.018 450.906 280.084V270.234C450.906 269.434 450.656 268.784 450.156 268.284C449.69 267.751 449.09 267.484 448.356 267.484C447.39 267.484 446.723 267.784 446.356 268.384C446.023 268.984 445.856 269.684 445.856 270.484V279.784ZM450.906 285.734C450.573 286.101 450.256 286.451 449.956 286.784C449.656 287.084 449.323 287.351 448.956 287.584C448.59 287.818 448.173 288.001 447.706 288.134C447.24 288.268 446.69 288.334 446.056 288.334C443.956 288.334 442.473 287.534 441.606 285.934C441.306 285.368 441.09 284.668 440.956 283.834C440.823 283.001 440.756 281.884 440.756 280.484V270.834C440.756 269.001 440.806 267.651 440.906 266.784C441.006 265.918 441.223 265.218 441.556 264.684C441.99 264.018 442.54 263.468 443.206 263.034C443.906 262.601 444.873 262.384 446.106 262.384C447.106 262.384 447.99 262.618 448.756 263.084C449.556 263.518 450.24 264.151 450.806 264.984H450.906V252.434H456.006V288.034H450.906V285.734Z" fill="black"/>
</svg>
